<svg xmlns="http://www.w3.org/2000/svg" style="display: none;"><symbol id="send-button" viewBox="0 0 535.5 535.5"><title>send-button</title><g transform="matrix(-1,0,0,1,535.5,0)"> <g xmlns="http://www.w3.org/2000/svg"> <g id="send"> <polygon points="0,497.25 535.5,267.75 0,38.25 0,216.75 382.5,267.75 0,318.75 " fill="#ffffff" data-original="#000000" style=""/> </g> </g> </g></symbol><symbol id="double-tick-indicator" viewBox="0 0 594.149 594.149"><title>double-tick-indicator</title><path d="M448.8,161.925l-35.7-35.7l-160.65,160.65l35.7,35.7L448.8,161.925z M555.899,126.225l-267.75,270.3l-107.1-107.1 l-35.7,35.7l142.8,142.8l306-306L555.899,126.225z M0,325.125l142.8,142.8l35.7-35.7l-142.8-142.8L0,325.125z"/></symbol><symbol id="verification-mark" viewBox="0 0 448.8 448.8"><title>verification-mark</title><polygon points="142.8,323.85 35.7,216.75 0,252.45 142.8,395.25 448.8,89.25 413.1,53.55 "/></symbol><symbol id="edit" viewBox="0 0 469.331 469.331"><title>edit</title><path d="M438.931,30.403c-40.4-40.5-106.1-40.5-146.5,0l-268.6,268.5c-2.1,2.1-3.4,4.8-3.8,7.7l-19.9,147.4 c-0.6,4.2,0.9,8.4,3.8,11.3c2.5,2.5,6,4,9.5,4c0.6,0,1.2,0,1.8-0.1l88.8-12c7.4-1,12.6-7.8,11.6-15.2c-1-7.4-7.8-12.6-15.2-11.6 l-71.2,9.6l13.9-102.8l108.2,108.2c2.5,2.5,6,4,9.5,4s7-1.4,9.5-4l268.6-268.5c19.6-19.6,30.4-45.6,30.4-73.3 S458.531,49.903,438.931,30.403z M297.631,63.403l45.1,45.1l-245.1,245.1l-45.1-45.1L297.631,63.403z M160.931,416.803l-44.1-44.1 l245.1-245.1l44.1,44.1L160.931,416.803z M424.831,152.403l-107.9-107.9c13.7-11.3,30.8-17.5,48.8-17.5c20.5,0,39.7,8,54.2,22.4 s22.4,33.7,22.4,54.2C442.331,121.703,436.131,138.703,424.831,152.403z"/></symbol><symbol id="reply-message" viewBox="0 0 24 24"><title>reply-message</title><path d="m10 7.002v-4.252c0-.301-.181-.573-.458-.691-.276-.117-.599-.058-.814.153l-8.5 8.25c-.146.141-.228.335-.228.538s.082.397.228.538l8.5 8.25c.217.21.539.269.814.153.277-.118.458-.39.458-.691v-4.25h1.418c4.636 0 8.91 2.52 11.153 6.572l.021.038c.134.244.388.39.658.39.062 0 .124-.007.186-.023.332-.085.564-.384.564-.727 0-7.774-6.257-14.114-14-14.248z"/></symbol></svg>