<svg xmlns="http://www.w3.org/2000/svg" style="display: none;"><symbol id="send-button" viewBox="0 0 535.5 535.5"><title>send-button</title><g transform="matrix(-1,0,0,1,535.5,0)"> <g xmlns="http://www.w3.org/2000/svg"> <g id="send"> <polygon points="0,497.25 535.5,267.75 0,38.25 0,216.75 382.5,267.75 0,318.75 " fill="#ffffff" data-original="#000000" style=""/> </g> </g> </g></symbol><symbol id="double-tick-indicator" viewBox="0 0 594.149 594.149"><title>double-tick-indicator</title><path d="M448.8,161.925l-35.7-35.7l-160.65,160.65l35.7,35.7L448.8,161.925z M555.899,126.225l-267.75,270.3l-107.1-107.1 l-35.7,35.7l142.8,142.8l306-306L555.899,126.225z M0,325.125l142.8,142.8l35.7-35.7l-142.8-142.8L0,325.125z"/></symbol><symbol id="verification-mark" viewBox="0 0 448.8 448.8"><title>verification-mark</title><polygon points="142.8,323.85 35.7,216.75 0,252.45 142.8,395.25 448.8,89.25 413.1,53.55 "/></symbol></svg>